<svg version="1.1" id="Layer_1" xmlns="http://www.w3.org/2000/svg" xmlns:xlink="http://www.w3.org/1999/xlink" x="0px" y="0px"
	 width="100%" viewBox="0 0 225 225" enable-background="new 0 0 225 225" xml:space="preserve">
<path fill="#FEFEFF" opacity="1.000000" stroke="none" 
	d="
M123.000000,226.000000 
	C82.000000,226.000000 41.500004,226.000000 1.000005,226.000000 
	C1.000004,151.000000 1.000004,76.000015 1.000002,1.000015 
	C75.999992,1.000010 150.999985,1.000010 225.999969,1.000005 
	C225.999985,75.999985 225.999985,150.999969 226.000000,225.999969 
	C191.833328,226.000000 157.666672,226.000000 123.000000,226.000000 
M157.062210,205.670776 
	C198.544434,184.976166 220.834641,143.123383 214.187119,98.411240 
	C205.896301,42.646053 154.355225,4.562904 98.350662,12.820909 
	C39.286865,21.530003 0.200091,79.631371 14.450915,137.535477 
	C29.845760,200.087997 96.642380,232.303329 157.062210,205.670776 
z"/>
<path fill="#019FE3" opacity="1.000000" stroke="none" 
	d="
M156.718079,205.827148 
	C96.642380,232.303329 29.845760,200.087997 14.450915,137.535477 
	C0.200091,79.631371 39.286865,21.530003 98.350662,12.820909 
	C154.355225,4.562904 205.896301,42.646053 214.187119,98.411240 
	C220.834641,143.123383 198.544434,184.976166 156.718079,205.827148 
M66.525253,159.238678 
	C69.607018,159.825073 72.686035,160.902924 75.770981,160.920197 
	C100.591957,161.059006 125.414230,161.052536 150.235733,160.972427 
	C160.874695,160.938080 170.310043,153.847885 173.563141,143.784180 
	C176.851151,133.612473 173.339584,122.644119 164.772842,116.191887 
	C157.625824,110.808937 149.694412,109.934860 141.202728,112.362045 
	C141.068100,111.517601 140.944046,111.041786 140.922638,110.561409 
	C140.131683,92.804535 129.306396,80.032394 112.205002,77.396317 
	C98.218399,75.240356 82.251266,83.667961 76.870010,99.239868 
	C76.400169,100.599464 74.211037,101.899170 72.607208,102.249092 
	C58.285492,105.373680 48.920250,115.052002 47.246082,128.783981 
	C45.746193,141.086502 53.005436,152.912201 66.525253,159.238678 
M154.756729,107.403473 
	C156.052292,107.701942 157.554199,107.679390 158.606750,108.355934 
	C162.597092,110.920746 164.753387,108.921494 167.021698,105.718132 
	C174.193420,95.590057 174.451492,81.769836 167.163681,71.623146 
	C160.513184,62.363815 151.267548,58.037724 139.969666,59.186916 
	C130.241714,60.176422 122.678452,65.046173 117.439178,74.019844 
	C133.668427,79.508286 142.708664,90.592392 145.154922,107.249657 
	C148.289139,107.249657 151.097290,107.249657 154.756729,107.403473 
z"/>
<path fill="#FEFEFF" opacity="1.000000" stroke="none" 
	d="
M66.154510,159.110779 
	C53.005436,152.912201 45.746193,141.086502 47.246082,128.783981 
	C48.920250,115.052002 58.285492,105.373680 72.607208,102.249092 
	C74.211037,101.899170 76.400169,100.599464 76.870010,99.239868 
	C82.251266,83.667961 98.218399,75.240356 112.205002,77.396317 
	C129.306396,80.032394 140.131683,92.804535 140.922638,110.561409 
	C140.944046,111.041786 141.068100,111.517601 141.202728,112.362045 
	C149.694412,109.934860 157.625824,110.808937 164.772842,116.191887 
	C173.339584,122.644119 176.851151,133.612473 173.563141,143.784180 
	C170.310043,153.847885 160.874695,160.938080 150.235733,160.972427 
	C125.414230,161.052536 100.591957,161.059006 75.770981,160.920197 
	C72.686035,160.902924 69.607018,159.825073 66.154510,159.110779 
z"/>
<path fill="#FDC628" opacity="1.000000" stroke="none" 
	d="
M154.331085,107.326569 
	C151.097290,107.249657 148.289139,107.249657 145.154922,107.249657 
	C142.708664,90.592392 133.668427,79.508286 117.439178,74.019844 
	C122.678452,65.046173 130.241714,60.176422 139.969666,59.186916 
	C151.267548,58.037724 160.513184,62.363815 167.163681,71.623146 
	C174.451492,81.769836 174.193420,95.590057 167.021698,105.718132 
	C164.753387,108.921494 162.597092,110.920746 158.606750,108.355934 
	C157.554199,107.679390 156.052292,107.701942 154.331085,107.326569 
z"/>
</svg>