<svg version="1.1" id="Layer_1" xmlns="http://www.w3.org/2000/svg" xmlns:xlink="http://www.w3.org/1999/xlink" x="0px" y="0px"
	 width="100%" viewBox="0 0 860 728" enable-background="new 0 0 860 728" xml:space="preserve">
<path fill="#F7F7F7" opacity="1.000000" stroke="none" 
	d="
M548.000000,729.000000 
	C365.333344,729.000000 183.166672,729.000000 1.000000,729.000000 
	C1.000000,486.333344 1.000000,243.666672 1.000000,1.000000 
	C287.666656,1.000000 574.333313,1.000000 861.000000,1.000000 
	C861.000000,243.666672 861.000000,486.333344 861.000000,729.000000 
	C756.833313,729.000000 652.666687,729.000000 548.000000,729.000000 
M108.024315,246.925156 
	C108.071487,259.616180 108.118668,272.307220 108.024513,285.926239 
	C108.071838,302.283539 108.119164,318.640869 108.025444,335.926178 
	C108.072357,361.617035 108.119270,387.307922 108.026115,413.926849 
	C108.072975,436.283813 108.119827,458.640808 108.027054,481.926270 
	C108.073433,495.617493 108.119820,509.308716 108.027695,523.927979 
	C108.106750,531.617615 108.185806,539.307190 108.134911,547.877136 
	C108.490112,552.917419 108.845314,557.957764 109.204720,563.791138 
	C110.448021,569.199829 111.691322,574.608582 112.909721,580.818359 
	C115.246399,587.598633 117.583076,594.378967 119.985901,601.866760 
	C122.857124,607.289368 125.728348,612.711914 128.809799,618.824829 
	C131.877533,623.215454 134.945282,627.606018 138.201080,632.644348 
	C144.716751,639.457397 151.232422,646.270447 158.075638,653.688599 
	C185.269547,677.155090 216.987213,688.873108 252.745193,688.928711 
	C371.533600,689.113586 490.322571,689.071411 609.111145,688.953369 
	C643.451843,688.919250 674.149780,677.970398 700.852966,656.331665 
	C705.690002,652.412048 709.718750,647.495117 714.769226,642.863708 
	C719.967163,636.279541 725.165100,629.695435 730.869080,622.696655 
	C732.985535,618.584045 735.101990,614.471497 737.825317,609.951294 
	C740.623413,603.327942 743.421509,596.704590 746.719788,589.556213 
	C748.404846,582.371155 750.089905,575.186157 751.991333,567.178162 
	C752.455017,562.112244 752.918762,557.046265 753.690247,551.096130 
	C753.737976,545.730469 753.785706,540.364868 753.971008,534.071228 
	C753.925354,527.047485 753.879639,520.023743 753.971375,512.071472 
	C753.925476,500.046997 753.879639,488.022522 753.970520,475.069916 
	C753.924988,458.379242 753.879456,441.688538 753.970703,424.069824 
	C753.925171,405.379761 753.879639,386.689728 753.971802,367.071259 
	C753.925842,356.046936 753.879944,345.022614 753.971741,333.070282 
	C753.925720,323.046173 753.879761,313.022095 753.971497,302.070007 
	C753.925537,293.379272 753.879578,284.688568 753.971375,275.069885 
	C753.925415,267.045959 753.879456,259.022034 753.971985,250.070282 
	C753.925964,242.712769 753.879944,235.355255 753.972168,227.069855 
	C753.926025,217.712326 753.879883,208.354797 753.971558,198.077515 
	C753.649597,192.006760 753.489441,185.921982 752.965698,179.868698 
	C752.271484,171.844818 751.293152,163.845520 750.340759,155.022766 
	C747.620544,146.482254 745.814087,137.512161 742.033264,129.470261 
	C715.393494,72.806282 670.474854,42.681736 607.918335,42.239681 
	C489.947388,41.406044 371.966370,41.992489 253.989532,42.007118 
	C238.744644,42.009010 223.619156,43.654095 209.239212,48.711914 
	C152.927628,68.518227 119.414368,107.791077 109.081322,167.566147 
	C108.776421,181.709839 108.471519,195.853546 108.024551,210.925461 
	C108.071815,222.615936 108.119080,234.306412 108.024315,246.925156 
z"/>
<path fill="#008AF0" opacity="1.000000" stroke="none" 
	d="
M109.540169,166.889893 
	C119.414368,107.791077 152.927628,68.518227 209.239212,48.711914 
	C223.619156,43.654095 238.744644,42.009010 253.989532,42.007118 
	C371.966370,41.992489 489.947388,41.406044 607.918335,42.239681 
	C670.474854,42.681736 715.393494,72.806282 742.033264,129.470261 
	C745.814087,137.512161 747.620544,146.482254 749.973328,155.595093 
	C746.169373,156.312042 742.733337,156.543045 739.296021,156.566025 
	C737.491089,156.578094 735.662109,155.948669 733.881287,156.087357 
	C727.033264,156.620651 720.211243,157.676147 713.358521,157.903625 
	C707.252014,158.106323 701.120056,157.347641 694.995239,157.237167 
	C685.579163,157.067337 676.159546,157.051834 666.741455,157.056366 
	C664.433838,157.057480 662.118164,157.319916 659.821106,157.589386 
	C657.373169,157.876541 654.945251,158.612000 652.504700,158.630264 
	C645.459717,158.682999 638.411682,158.342773 631.366760,158.397354 
	C620.978943,158.477844 610.593262,158.809036 600.205566,158.952469 
	C591.559082,159.071884 582.908936,158.981567 574.264160,159.161545 
	C568.387085,159.283875 562.517883,159.920471 556.642517,159.964157 
	C540.913757,160.081131 525.183289,159.949707 509.454224,160.042099 
	C505.884460,160.063049 502.322479,160.713898 498.748291,160.853027 
	C494.681976,161.011292 490.605438,160.966583 486.534546,160.914154 
	C485.083221,160.895462 483.628113,160.401108 482.187256,160.455460 
	C469.753021,160.924438 457.163330,162.911591 444.935669,161.569702 
	C433.604370,160.326187 422.456421,161.945084 411.322449,161.881378 
	C402.077179,161.828491 392.568298,160.688751 383.241180,162.012741 
	C379.975342,162.476318 376.731232,163.526184 373.474426,163.537796 
	C364.175079,163.570984 354.875000,163.128677 345.573730,163.052414 
	C342.952698,163.030930 340.278503,164.110855 337.710907,163.856400 
	C324.957428,162.592438 312.238159,161.383392 299.588013,164.643127 
	C299.115143,164.764969 298.601257,164.860764 298.123413,164.809784 
	C292.758545,164.237366 287.403534,163.559021 282.030457,163.083923 
	C280.412476,162.940842 278.734558,163.260147 277.105255,163.507233 
	C274.192871,163.948898 271.307251,164.812393 268.390442,164.911575 
	C265.446686,165.011703 262.475891,164.120712 259.521729,164.150055 
	C251.714447,164.227646 243.905762,164.481842 236.105881,164.843903 
	C232.620758,165.005676 229.144257,165.986191 225.684143,165.887009 
	C221.660141,165.771652 217.532547,162.665329 213.753433,166.759109 
	C213.491409,167.042984 212.250473,166.290329 211.449371,166.232376 
	C207.888229,165.974762 204.318695,165.584412 200.757309,165.631058 
	C193.739532,165.723038 186.602127,166.992249 179.741730,166.074188 
	C171.868561,165.020630 161.335266,164.480072 153.998581,166.766251 
	C152.788620,167.143295 151.363403,166.878998 150.040222,166.834747 
	C143.996902,166.632553 137.953735,166.209274 131.911957,166.232834 
	C124.453949,166.261902 116.997368,166.654434 109.540169,166.889893 
z"/>
<path fill="#0094F1" opacity="1.000000" stroke="none" 
	d="
M109.310745,167.228027 
	C116.997368,166.654434 124.453949,166.261902 131.911957,166.232834 
	C137.953735,166.209274 143.996902,166.632553 150.040222,166.834747 
	C151.363403,166.878998 152.788620,167.143295 153.998581,166.766251 
	C161.335266,164.480072 171.868561,165.020630 179.741730,166.074188 
	C186.602127,166.992249 193.739532,165.723038 200.757309,165.631058 
	C204.318695,165.584412 207.888229,165.974762 211.449371,166.232376 
	C212.250473,166.290329 213.491409,167.042984 213.753433,166.759109 
	C217.532547,162.665329 221.660141,165.771652 225.684143,165.887009 
	C229.144257,165.986191 232.620758,165.005676 236.105881,164.843903 
	C243.905762,164.481842 251.714447,164.227646 259.521729,164.150055 
	C262.475891,164.120712 265.446686,165.011703 268.390442,164.911575 
	C271.307251,164.812393 274.192871,163.948898 277.105255,163.507233 
	C278.734558,163.260147 280.412476,162.940842 282.030457,163.083923 
	C287.403534,163.559021 292.758545,164.237366 298.123413,164.809784 
	C298.601257,164.860764 299.115143,164.764969 299.588013,164.643127 
	C312.238159,161.383392 324.957428,162.592438 337.710907,163.856400 
	C340.278503,164.110855 342.952698,163.030930 345.573730,163.052414 
	C354.875000,163.128677 364.175079,163.570984 373.474426,163.537796 
	C376.731232,163.526184 379.975342,162.476318 383.241180,162.012741 
	C392.568298,160.688751 402.077179,161.828491 411.322449,161.881378 
	C422.456421,161.945084 433.604370,160.326187 444.935669,161.569702 
	C457.163330,162.911591 469.753021,160.924438 482.187256,160.455460 
	C483.628113,160.401108 485.083221,160.895462 486.534546,160.914154 
	C490.605438,160.966583 494.681976,161.011292 498.748291,160.853027 
	C502.322479,160.713898 505.884460,160.063049 509.454224,160.042099 
	C525.183289,159.949707 540.913757,160.081131 556.642517,159.964157 
	C562.517883,159.920471 568.387085,159.283875 574.264160,159.161545 
	C582.908936,158.981567 591.559082,159.071884 600.205566,158.952469 
	C610.593262,158.809036 620.978943,158.477844 631.366760,158.397354 
	C638.411682,158.342773 645.459717,158.682999 652.504700,158.630264 
	C654.945251,158.612000 657.373169,157.876541 659.821106,157.589386 
	C662.118164,157.319916 664.433838,157.057480 666.741455,157.056366 
	C676.159546,157.051834 685.579163,157.067337 694.995239,157.237167 
	C701.120056,157.347641 707.252014,158.106323 713.358521,157.903625 
	C720.211243,157.676147 727.033264,156.620651 733.881287,156.087357 
	C735.662109,155.948669 737.491089,156.578094 739.296021,156.566025 
	C742.733337,156.543045 746.169373,156.312042 750.021362,156.001556 
	C751.293152,163.845520 752.271484,171.844818 752.965698,179.868698 
	C753.489441,185.921982 753.649597,192.006760 753.485107,198.538193 
	C750.072021,198.921265 747.138489,198.678329 744.220032,198.798477 
	C736.849426,199.101913 729.485962,199.880951 722.118835,199.890671 
	C712.997192,199.902695 703.875000,199.328232 694.752563,199.019043 
	C694.257629,199.002258 693.759827,199.110764 693.262085,199.134674 
	C682.070007,199.672379 670.882446,200.393478 659.683777,200.673920 
	C652.484802,200.854202 645.268188,200.198624 638.062073,200.254272 
	C628.876831,200.325211 619.694702,200.748871 610.510498,200.996017 
	C603.350159,201.188751 596.184326,201.241425 589.029541,201.553177 
	C584.496765,201.750671 579.981506,202.329987 575.454285,202.686630 
	C574.657654,202.749374 573.842468,202.533875 573.033508,202.488297 
	C569.509277,202.289688 565.986023,202.011765 562.458923,201.945282 
	C559.213806,201.884109 555.964050,202.051880 552.716553,202.126740 
	C545.340210,202.296738 537.961487,202.404678 530.588684,202.672424 
	C526.831421,202.808853 523.086609,203.441025 519.332825,203.474335 
	C515.508667,203.508270 511.680511,202.921921 507.854034,202.920975 
	C505.739471,202.920456 503.621185,203.884995 501.510742,203.861359 
	C491.975189,203.754684 482.442749,203.386856 472.907227,203.253021 
	C469.692993,203.207916 466.474365,203.608948 463.255280,203.749054 
	C454.538269,204.128433 445.822449,204.572830 437.101196,204.802109 
	C431.932220,204.937973 426.753540,204.651108 421.579681,204.670349 
	C415.255219,204.693878 408.931122,204.837631 402.606934,204.932129 
	C400.360413,204.965714 398.113983,205.007263 395.543274,204.959167 
	C388.724884,200.569550 382.524933,195.717255 375.688690,192.051575 
	C332.025696,168.639008 278.111053,175.037445 239.826401,207.839554 
	C234.987503,207.960617 230.360001,208.701447 225.733200,208.697174 
	C209.732681,208.682434 193.732224,208.279984 177.732147,208.303543 
	C172.267517,208.311584 166.808533,209.440582 161.339005,209.522003 
	C153.974335,209.631607 146.599548,209.007370 139.233444,209.088928 
	C128.875748,209.203659 118.522034,209.677155 108.166618,209.997238 
	C108.471519,195.853546 108.776421,181.709839 109.310745,167.228027 
z"/>
<path fill="#00F7F9" opacity="1.000000" stroke="none" 
	d="
M714.120605,643.038574 
	C709.718750,647.495117 705.690002,652.412048 700.852966,656.331665 
	C674.149780,677.970398 643.451843,688.919250 609.111145,688.953369 
	C490.322571,689.071411 371.533600,689.113586 252.745193,688.928711 
	C216.987213,688.873108 185.269547,677.155090 158.369843,653.362183 
	C166.404587,653.246826 173.786057,650.353821 181.993530,652.512085 
	C188.191956,654.142090 195.398438,651.877319 202.162384,651.441101 
	C206.257416,651.177002 210.374191,650.848450 214.462067,651.015930 
	C217.192673,651.127808 219.766418,653.579407 222.700439,651.155273 
	C223.368195,650.603638 224.948242,651.187073 226.108749,651.195007 
	C229.031311,651.214905 231.954346,651.231262 234.876709,651.201538 
	C243.715256,651.111572 252.554596,651.050659 261.391541,650.873535 
	C265.794525,650.785278 270.193176,650.473328 274.593323,650.252991 
	C282.251801,649.869568 289.906708,649.264343 297.569061,649.149353 
	C305.680878,649.027527 313.799805,649.483032 321.915405,649.474304 
	C329.157959,649.466614 336.400665,649.187195 343.642456,648.994446 
	C349.084869,648.849548 354.526245,648.500427 359.967499,648.512207 
	C368.796661,648.531311 377.625183,648.874084 386.454315,648.889893 
	C395.422943,648.905945 404.392426,648.714966 413.360718,648.566345 
	C416.760406,648.510010 420.745636,649.399109 423.422607,647.942871 
	C427.754181,645.586670 431.238739,647.082886 435.178070,647.988403 
	C436.901398,648.384399 439.031921,648.373718 440.624634,647.706055 
	C444.682922,646.004639 448.433014,645.316711 451.522949,648.250244 
	C454.137695,647.785889 456.346558,647.117615 458.573090,647.052185 
	C464.281006,646.884399 470.000916,647.111023 475.707825,646.926331 
	C478.748566,646.827942 481.772186,645.903198 484.803711,645.902283 
	C487.744232,645.901367 490.686676,646.936707 493.625244,646.921692 
	C497.915497,646.899841 502.206421,646.039734 506.490997,646.086914 
	C513.863953,646.167908 521.232117,646.888611 528.602661,646.895081 
	C531.613281,646.897766 534.626709,645.197205 537.635925,645.206665 
	C548.005127,645.239319 558.373169,645.908081 568.741516,645.905396 
	C577.838257,645.903015 586.933594,645.279968 596.031860,645.010193 
	C608.812134,644.631165 621.594177,644.308105 634.376343,643.998108 
	C638.481384,643.898560 642.591614,643.991516 646.695251,643.862244 
	C653.244324,643.655945 659.790222,643.118103 666.336975,643.125427 
	C673.489746,643.133423 680.642700,643.833984 687.794250,643.810608 
	C696.570435,643.781860 705.345215,643.315613 714.120605,643.038574 
z"/>
<path fill="#00DBF7" opacity="1.000000" stroke="none" 
	d="
M753.833923,513.000000 
	C753.879639,520.023743 753.925354,527.047485 753.523193,534.544617 
	C748.743591,535.347717 744.416992,535.828857 740.079102,535.978210 
	C728.048462,536.392639 716.013428,536.686768 703.979309,536.991638 
	C698.905823,537.120239 693.828552,537.103638 688.755737,537.248901 
	C682.713562,537.421814 676.675415,537.845581 670.633423,537.892456 
	C662.599243,537.954834 654.558472,537.550598 646.529053,537.729492 
	C637.914917,537.921387 629.312134,538.875183 620.701843,538.913513 
	C611.227295,538.955688 601.751465,538.208191 592.272522,538.080505 
	C589.539368,538.043762 586.797241,538.981750 584.051880,539.427734 
	C582.589355,539.665405 580.858704,540.397949 579.681213,539.895142 
	C572.234497,536.715576 564.631714,539.717896 557.134766,539.078308 
	C553.260620,538.747803 549.316467,539.207886 545.405212,539.347351 
	C532.538086,539.806152 519.674561,540.402954 506.803986,540.714111 
	C495.475708,540.987976 484.139435,540.920593 472.807892,541.084473 
	C471.346558,541.105530 469.867310,541.944214 468.438538,541.837769 
	C457.437073,541.018250 446.446869,539.431091 435.449158,541.889099 
	C434.984009,541.993042 434.460876,541.805176 433.965363,541.810669 
	C424.719116,541.913025 415.472961,542.020386 406.226898,542.135193 
	C402.320557,542.183716 398.413116,542.205750 394.508636,542.321777 
	C388.931335,542.487366 383.353180,542.960693 377.780853,542.887573 
	C366.910217,542.744995 356.044312,542.183838 345.174133,542.100708 
	C342.633087,542.081238 340.080109,543.828003 337.537201,543.815674 
	C328.999939,543.774353 320.465363,543.126221 311.928406,543.095764 
	C308.883453,543.084839 305.835785,544.659546 302.787231,544.667236 
	C294.528442,544.687927 286.266418,543.999878 278.009460,544.065186 
	C265.945526,544.160583 253.886597,544.839417 241.822464,544.958496 
	C225.110001,545.123596 208.394165,544.928467 191.680878,545.044373 
	C186.779282,545.078369 181.885162,545.729065 176.980927,545.947937 
	C169.287064,546.291382 161.587723,546.713379 153.890335,546.720703 
	C146.218674,546.728027 138.545532,546.038879 130.874924,546.073547 
	C123.336998,546.107666 115.801453,546.667603 108.264862,546.996826 
	C108.185806,539.307190 108.106750,531.617615 108.554459,523.463989 
	C118.037582,522.669617 127.145653,521.182678 135.907837,522.332275 
	C144.771591,523.495117 153.325775,521.055420 162.295242,522.574707 
	C171.541122,524.140808 181.358215,522.297180 190.927155,522.003052 
	C202.807404,521.637817 214.687637,521.189514 226.571213,521.037903 
	C239.815582,520.868896 253.065292,521.116943 266.309692,520.949158 
	C276.635437,520.818420 286.954926,520.244385 297.280640,520.040100 
	C301.508698,519.956421 305.745270,520.391052 309.979309,520.425720 
	C310.648468,520.431213 311.324768,519.564880 312.409668,518.985352 
	C319.717712,519.579468 326.612366,520.889160 333.510254,520.906494 
	C396.658264,521.065491 459.806885,520.966614 522.955261,521.017761 
	C545.882751,521.036377 568.922241,522.308167 591.132080,514.054749 
	C596.722595,514.935730 602.117981,516.090881 607.481750,515.958862 
	C617.218079,515.719055 626.927185,514.344727 636.663025,514.125122 
	C647.677490,513.876709 658.708801,514.378845 669.732788,514.552368 
	C672.982727,514.603516 676.239075,514.799194 679.481628,514.665710 
	C689.966003,514.234131 700.440918,513.473389 710.928223,513.249512 
	C717.447876,513.110291 723.984985,513.962646 730.511230,513.917908 
	C738.287231,513.864685 746.059814,513.327515 753.833923,513.000000 
z"/>
<path fill="#00E8F8" opacity="1.000000" stroke="none" 
	d="
M119.919754,601.159241 
	C117.583076,594.378967 115.246399,587.598633 113.334435,580.362061 
	C115.546875,579.603943 117.340050,579.021301 119.121254,579.055847 
	C123.489891,579.140564 127.864410,579.827026 132.214966,579.670593 
	C136.115814,579.530334 139.985840,578.119690 143.873062,578.102905 
	C150.910614,578.072571 158.099548,579.702698 164.951172,578.722778 
	C172.980606,577.574402 180.824203,577.452209 188.869293,577.667419 
	C200.090866,577.967651 211.339691,577.291138 222.575562,576.985168 
	C225.356400,576.909424 228.130554,576.543701 230.910782,576.499329 
	C235.597214,576.424438 240.286453,576.541504 244.973709,576.495728 
	C247.614838,576.469971 250.253464,576.216370 252.894852,576.178406 
	C256.981934,576.119690 261.070648,576.185547 265.158234,576.148499 
	C272.246613,576.084351 279.334595,575.916687 286.422791,575.912170 
	C295.097687,575.906616 303.775177,576.178467 312.446777,576.037598 
	C318.905212,575.932739 325.352692,575.196228 331.811646,575.065247 
	C335.427277,574.991882 339.069153,575.934570 342.676971,575.804382 
	C355.346527,575.347046 368.000610,574.318115 380.671478,574.076111 
	C397.020325,573.763855 413.379974,574.052246 429.734344,573.963623 
	C433.856171,573.941284 437.972595,573.321655 442.096802,573.237549 
	C447.963470,573.117859 453.838593,573.378174 459.703827,573.229370 
	C472.066406,572.915771 484.422760,572.241028 496.785889,572.107971 
	C504.328247,572.026733 511.881683,573.000183 519.424438,572.924988 
	C530.914673,572.810486 542.398132,572.127747 553.888123,571.826904 
	C559.466736,571.680847 565.054077,571.903381 570.636841,571.866943 
	C575.492737,571.835266 580.348389,571.696472 585.203003,571.563538 
	C589.721924,571.439880 594.245056,571.353577 598.755249,571.072937 
	C601.531311,570.900208 604.289246,570.083191 607.050537,570.106812 
	C611.766846,570.147217 616.482239,570.899597 621.192871,570.851196 
	C629.576172,570.764954 637.953552,570.204468 646.337341,570.029541 
	C653.922119,569.871277 661.526001,570.241882 669.096191,569.868347 
	C677.239746,569.466431 685.338440,567.149841 693.504700,569.838379 
	C694.327881,570.109314 695.420776,569.434631 696.398132,569.383545 
	C704.834778,568.942078 713.269775,568.371643 721.713013,568.175781 
	C731.729614,567.943481 741.753967,568.044495 751.775024,568.001099 
	C750.089905,575.186157 748.404846,582.371155 746.064758,589.756836 
	C741.845764,589.384705 738.266174,588.253174 734.721008,588.352417 
	C726.717407,588.576721 718.731201,589.412964 710.736816,589.984924 
	C710.244019,590.020203 709.742249,589.902466 709.243713,589.888611 
	C704.177673,589.747742 699.104553,589.377319 694.046692,589.525085 
	C682.101746,589.874023 670.167664,590.652039 658.221924,590.894714 
	C651.689941,591.027466 645.144348,590.385376 638.602417,590.168152 
	C635.021057,590.049194 631.424866,589.903259 627.851929,590.088867 
	C617.269043,590.638428 606.702026,591.578308 596.114380,591.925171 
	C586.321106,592.245911 576.508911,591.957397 566.705811,592.034912 
	C564.744873,592.050354 562.783386,592.749756 560.828918,592.718140 
	C551.343201,592.564575 541.858276,592.030762 532.375793,592.085876 
	C520.892761,592.152588 509.413361,592.711487 497.930786,592.990967 
	C482.722565,593.361023 467.512390,593.651611 452.303802,594.006836 
	C445.419373,594.167603 438.536682,594.404602 431.652924,594.597046 
	C431.166229,594.610657 430.677551,594.520752 430.189331,594.514526 
	C421.752838,594.406555 413.315521,594.184631 404.879974,594.237976 
	C398.037628,594.281250 391.197723,594.818848 384.356201,594.830139 
	C379.483643,594.838196 374.607727,594.076904 369.737823,594.124146 
	C362.865997,594.190735 356.001251,594.796997 349.128326,594.977661 
	C333.734222,595.382385 318.337799,595.713867 302.940674,595.980896 
	C294.776611,596.122437 286.603607,595.892639 278.444611,596.147827 
	C269.694763,596.421387 260.960571,597.353638 252.212250,597.475830 
	C242.056702,597.617615 231.891647,596.988037 221.733597,597.066772 
	C210.853500,597.151062 199.978470,597.760071 189.097961,597.969482 
	C181.104095,598.123413 173.104630,597.964783 165.108353,598.030945 
	C163.156113,598.047119 161.210037,598.517212 159.255280,598.572815 
	C154.158798,598.717712 149.058517,598.829956 143.960831,598.795349 
	C140.756302,598.773621 137.548920,598.256104 134.351425,598.330688 
	C129.405106,598.445923 124.204559,597.564819 119.919754,601.159241 
z"/>
<path fill="#00EDF8" opacity="1.000000" stroke="none" 
	d="
M119.952835,601.513000 
	C124.204559,597.564819 129.405106,598.445923 134.351425,598.330688 
	C137.548920,598.256104 140.756302,598.773621 143.960831,598.795349 
	C149.058517,598.829956 154.158798,598.717712 159.255280,598.572815 
	C161.210037,598.517212 163.156113,598.047119 165.108353,598.030945 
	C173.104630,597.964783 181.104095,598.123413 189.097961,597.969482 
	C199.978470,597.760071 210.853500,597.151062 221.733597,597.066772 
	C231.891647,596.988037 242.056702,597.617615 252.212250,597.475830 
	C260.960571,597.353638 269.694763,596.421387 278.444611,596.147827 
	C286.603607,595.892639 294.776611,596.122437 302.940674,595.980896 
	C318.337799,595.713867 333.734222,595.382385 349.128326,594.977661 
	C356.001251,594.796997 362.865997,594.190735 369.737823,594.124146 
	C374.607727,594.076904 379.483643,594.838196 384.356201,594.830139 
	C391.197723,594.818848 398.037628,594.281250 404.879974,594.237976 
	C413.315521,594.184631 421.752838,594.406555 430.189331,594.514526 
	C430.677551,594.520752 431.166229,594.610657 431.652924,594.597046 
	C438.536682,594.404602 445.419373,594.167603 452.303802,594.006836 
	C467.512390,593.651611 482.722565,593.361023 497.930786,592.990967 
	C509.413361,592.711487 520.892761,592.152588 532.375793,592.085876 
	C541.858276,592.030762 551.343201,592.564575 560.828918,592.718140 
	C562.783386,592.749756 564.744873,592.050354 566.705811,592.034912 
	C576.508911,591.957397 586.321106,592.245911 596.114380,591.925171 
	C606.702026,591.578308 617.269043,590.638428 627.851929,590.088867 
	C631.424866,589.903259 635.021057,590.049194 638.602417,590.168152 
	C645.144348,590.385376 651.689941,591.027466 658.221924,590.894714 
	C670.167664,590.652039 682.101746,589.874023 694.046692,589.525085 
	C699.104553,589.377319 704.177673,589.747742 709.243713,589.888611 
	C709.742249,589.902466 710.244019,590.020203 710.736816,589.984924 
	C718.731201,589.412964 726.717407,588.576721 734.721008,588.352417 
	C738.266174,588.253174 741.845764,589.384705 745.814636,590.019409 
	C743.421509,596.704590 740.623413,603.327942 737.317688,609.840088 
	C735.304749,609.278259 733.808167,608.484497 732.292480,608.446350 
	C728.776855,608.357849 725.252869,608.714478 721.730957,608.745789 
	C714.880676,608.806702 708.026611,608.641907 701.179626,608.804871 
	C693.723572,608.982361 686.274719,609.664185 678.821106,609.690369 
	C670.277039,609.720398 661.730042,609.043884 653.186646,609.092102 
	C643.896423,609.144470 634.610046,609.715942 625.319885,609.990417 
	C612.781982,610.360901 600.243835,610.787842 587.702576,610.960449 
	C575.615356,611.126831 563.522278,610.871887 551.435059,611.038757 
	C539.061218,611.209595 526.692688,611.746155 514.319092,611.972290 
	C506.148560,612.121704 497.971222,611.891052 489.800507,612.034668 
	C476.483429,612.268677 463.170197,612.723389 449.853088,612.951294 
	C447.400970,612.993347 444.917908,612.035889 442.483765,612.169800 
	C434.144836,612.628479 425.829956,613.597961 417.488617,613.909546 
	C412.808655,614.084290 407.882355,612.313599 403.437836,613.225830 
	C392.445526,615.481995 381.495422,612.747681 370.566589,613.925354 
	C367.846771,614.218445 365.023163,613.383911 362.259583,613.468689 
	C355.790649,613.667236 349.332458,614.226562 342.863434,614.409790 
	C338.636292,614.529602 334.151764,613.300476 330.211517,614.325195 
	C319.362854,617.146667 308.568176,614.265930 297.785797,614.984741 
	C293.742218,615.254272 289.691223,615.413757 285.643402,615.618896 
	C277.761658,616.018433 269.877014,616.775818 261.998627,616.716614 
	C253.163223,616.650330 244.004913,614.146545 235.581589,615.776184 
	C224.226974,617.972900 213.094009,615.615906 201.905807,616.848267 
	C197.218872,617.364624 192.496674,616.191223 187.530716,616.726685 
	C176.219894,617.946289 164.748825,617.737671 153.340057,617.971680 
	C145.095581,618.140808 136.846558,618.088257 128.599564,618.134521 
	C125.728348,612.711914 122.857124,607.289368 119.952835,601.513000 
z"/>
<path fill="#00F2F9" opacity="1.000000" stroke="none" 
	d="
M714.444946,642.951172 
	C705.345215,643.315613 696.570435,643.781860 687.794250,643.810608 
	C680.642700,643.833984 673.489746,643.133423 666.336975,643.125427 
	C659.790222,643.118103 653.244324,643.655945 646.695251,643.862244 
	C642.591614,643.991516 638.481384,643.898560 634.376343,643.998108 
	C621.594177,644.308105 608.812134,644.631165 596.031860,645.010193 
	C586.933594,645.279968 577.838257,645.903015 568.741516,645.905396 
	C558.373169,645.908081 548.005127,645.239319 537.635925,645.206665 
	C534.626709,645.197205 531.613281,646.897766 528.602661,646.895081 
	C521.232117,646.888611 513.863953,646.167908 506.490997,646.086914 
	C502.206421,646.039734 497.915497,646.899841 493.625244,646.921692 
	C490.686676,646.936707 487.744232,645.901367 484.803711,645.902283 
	C481.772186,645.903198 478.748566,646.827942 475.707825,646.926331 
	C470.000916,647.111023 464.281006,646.884399 458.573090,647.052185 
	C456.346558,647.117615 454.137695,647.785889 451.522949,648.250244 
	C448.433014,645.316711 444.682922,646.004639 440.624634,647.706055 
	C439.031921,648.373718 436.901398,648.384399 435.178070,647.988403 
	C431.238739,647.082886 427.754181,645.586670 423.422607,647.942871 
	C420.745636,649.399109 416.760406,648.510010 413.360718,648.566345 
	C404.392426,648.714966 395.422943,648.905945 386.454315,648.889893 
	C377.625183,648.874084 368.796661,648.531311 359.967499,648.512207 
	C354.526245,648.500427 349.084869,648.849548 343.642456,648.994446 
	C336.400665,649.187195 329.157959,649.466614 321.915405,649.474304 
	C313.799805,649.483032 305.680878,649.027527 297.569061,649.149353 
	C289.906708,649.264343 282.251801,649.869568 274.593323,650.252991 
	C270.193176,650.473328 265.794525,650.785278 261.391541,650.873535 
	C252.554596,651.050659 243.715256,651.111572 234.876709,651.201538 
	C231.954346,651.231262 229.031311,651.214905 226.108749,651.195007 
	C224.948242,651.187073 223.368195,650.603638 222.700439,651.155273 
	C219.766418,653.579407 217.192673,651.127808 214.462067,651.015930 
	C210.374191,650.848450 206.257416,651.177002 202.162384,651.441101 
	C195.398438,651.877319 188.191956,654.142090 181.993530,652.512085 
	C173.786057,650.353821 166.404587,653.246826 158.206085,653.059631 
	C151.232422,646.270447 144.716751,639.457397 138.469772,632.277222 
	C140.712158,631.522034 142.973785,630.321411 144.605087,630.899536 
	C149.326767,632.572632 153.722168,632.387878 158.513840,631.153015 
	C161.719742,630.326721 165.300507,630.927429 168.713409,630.937744 
	C175.394104,630.958008 182.078094,631.163635 188.754486,631.014221 
	C197.460129,630.819336 206.157288,630.202881 214.862839,630.062012 
	C220.076187,629.977600 225.297562,630.594299 230.517334,630.634399 
	C234.480316,630.664856 238.446411,630.122070 242.411194,630.121216 
	C248.603165,630.119812 254.802780,630.618713 260.985382,630.436768 
	C269.424927,630.188416 277.910126,628.647400 286.268494,629.221497 
	C296.124512,629.898560 305.769592,627.851501 315.799561,629.166992 
	C327.943237,630.759705 340.505981,629.225952 352.884766,628.934448 
	C362.317078,628.712402 371.743469,628.182251 381.176117,628.052246 
	C386.582428,627.977661 392.005066,628.737244 397.404419,628.578552 
	C408.940430,628.239563 420.463776,627.489258 431.997131,627.028137 
	C436.735504,626.838745 441.490417,627.074524 446.230255,626.905090 
	C450.026031,626.769470 453.812164,626.027771 457.599548,626.051025 
	C471.758911,626.137878 485.920258,626.714661 500.074738,626.557495 
	C512.594604,626.418640 525.102112,625.336731 537.623413,625.083679 
	C544.484070,624.945068 551.373413,626.082397 558.229431,625.895447 
	C569.698608,625.582642 581.152466,624.686584 592.610352,623.996399 
	C594.905212,623.858276 597.203674,623.251526 599.475830,623.362732 
	C606.928406,623.727478 614.558655,625.615662 621.775879,624.560608 
	C636.711487,622.377319 651.662598,625.212585 666.546570,623.099915 
	C677.393372,621.560242 688.439636,625.276978 699.350769,622.380859 
	C702.108154,621.649048 705.060303,621.120850 707.882996,621.267761 
	C715.388000,621.658386 722.871216,622.468201 730.363098,623.111328 
	C725.165100,629.695435 719.967163,636.279541 714.444946,642.951172 
z"/>
<path fill="#00E0F7" opacity="1.000000" stroke="none" 
	d="
M108.199890,547.437012 
	C115.801453,546.667603 123.336998,546.107666 130.874924,546.073547 
	C138.545532,546.038879 146.218674,546.728027 153.890335,546.720703 
	C161.587723,546.713379 169.287064,546.291382 176.980927,545.947937 
	C181.885162,545.729065 186.779282,545.078369 191.680878,545.044373 
	C208.394165,544.928467 225.110001,545.123596 241.822464,544.958496 
	C253.886597,544.839417 265.945526,544.160583 278.009460,544.065186 
	C286.266418,543.999878 294.528442,544.687927 302.787231,544.667236 
	C305.835785,544.659546 308.883453,543.084839 311.928406,543.095764 
	C320.465363,543.126221 328.999939,543.774353 337.537201,543.815674 
	C340.080109,543.828003 342.633087,542.081238 345.174133,542.100708 
	C356.044312,542.183838 366.910217,542.744995 377.780853,542.887573 
	C383.353180,542.960693 388.931335,542.487366 394.508636,542.321777 
	C398.413116,542.205750 402.320557,542.183716 406.226898,542.135193 
	C415.472961,542.020386 424.719116,541.913025 433.965363,541.810669 
	C434.460876,541.805176 434.984009,541.993042 435.449158,541.889099 
	C446.446869,539.431091 457.437073,541.018250 468.438538,541.837769 
	C469.867310,541.944214 471.346558,541.105530 472.807892,541.084473 
	C484.139435,540.920593 495.475708,540.987976 506.803986,540.714111 
	C519.674561,540.402954 532.538086,539.806152 545.405212,539.347351 
	C549.316467,539.207886 553.260620,538.747803 557.134766,539.078308 
	C564.631714,539.717896 572.234497,536.715576 579.681213,539.895142 
	C580.858704,540.397949 582.589355,539.665405 584.051880,539.427734 
	C586.797241,538.981750 589.539368,538.043762 592.272522,538.080505 
	C601.751465,538.208191 611.227295,538.955688 620.701843,538.913513 
	C629.312134,538.875183 637.914917,537.921387 646.529053,537.729492 
	C654.558472,537.550598 662.599243,537.954834 670.633423,537.892456 
	C676.675415,537.845581 682.713562,537.421814 688.755737,537.248901 
	C693.828552,537.103638 698.905823,537.120239 703.979309,536.991638 
	C716.013428,536.686768 728.048462,536.392639 740.079102,535.978210 
	C744.416992,535.828857 748.743591,535.347717 753.454346,535.008606 
	C753.785706,540.364868 753.737976,545.730469 753.176147,551.547607 
	C748.299866,552.332764 743.942444,552.836304 739.574341,552.956604 
	C734.300598,553.101807 729.014343,552.778442 723.739990,552.913269 
	C713.366394,553.178528 702.909546,554.610596 692.652161,553.700256 
	C683.093262,552.851868 673.730774,555.502747 664.083679,553.479187 
	C657.872375,552.176331 651.063660,553.766602 644.520325,553.991455 
	C633.895142,554.356628 623.269958,554.770874 612.641113,554.965454 
	C603.788452,555.127563 594.928162,554.876404 586.075562,555.041077 
	C576.368530,555.221619 566.667969,555.741821 556.961060,555.953857 
	C554.183716,556.014526 551.380432,555.211487 548.612854,555.335754 
	C539.669373,555.737366 530.743286,556.647766 521.798462,556.864563 
	C513.188538,557.073303 504.563110,556.522522 495.945435,556.554626 
	C478.129730,556.621094 460.314087,556.815857 442.499908,557.063416 
	C440.231598,557.094971 437.974426,557.773804 435.707611,558.123962 
	C434.101288,558.372070 432.487885,558.758728 430.876862,558.762817 
	C418.359100,558.794250 405.839569,558.619751 393.323975,558.778870 
	C386.986725,558.859375 380.475281,560.586365 374.375916,559.569580 
	C368.669495,558.618225 363.501526,557.488159 357.925751,559.838196 
	C356.298920,560.523926 354.021393,559.538635 352.042542,559.542175 
	C347.772064,559.549927 343.501404,559.685669 339.231750,559.801941 
	C336.989014,559.862976 334.744568,560.127686 332.507080,560.068176 
	C323.969208,559.841125 315.426422,559.148804 306.899261,559.319092 
	C293.725433,559.582214 280.567993,560.688965 267.394318,560.929199 
	C251.154037,561.225342 234.903534,560.920959 218.659195,561.067200 
	C215.434280,561.096191 212.219269,562.391357 208.996017,562.408447 
	C199.187012,562.460449 189.354523,561.721008 179.574371,562.190063 
	C173.852661,562.464478 168.227020,562.482483 162.533722,562.435242 
	C155.510010,562.376892 148.434616,562.653564 141.340363,562.490784 
	C130.636597,562.245300 119.914703,562.789551 109.200516,562.998047 
	C108.845314,557.957764 108.490112,552.917419 108.199890,547.437012 
z"/>
<path fill="#00E4F8" opacity="1.000000" stroke="none" 
	d="
M109.202621,563.394592 
	C119.914703,562.789551 130.636597,562.245300 141.340363,562.490784 
	C148.434616,562.653564 155.510010,562.376892 162.533722,562.435242 
	C168.227020,562.482483 173.852661,562.464478 179.574371,562.190063 
	C189.354523,561.721008 199.187012,562.460449 208.996017,562.408447 
	C212.219269,562.391357 215.434280,561.096191 218.659195,561.067200 
	C234.903534,560.920959 251.154037,561.225342 267.394318,560.929199 
	C280.567993,560.688965 293.725433,559.582214 306.899261,559.319092 
	C315.426422,559.148804 323.969208,559.841125 332.507080,560.068176 
	C334.744568,560.127686 336.989014,559.862976 339.231750,559.801941 
	C343.501404,559.685669 347.772064,559.549927 352.042542,559.542175 
	C354.021393,559.538635 356.298920,560.523926 357.925751,559.838196 
	C363.501526,557.488159 368.669495,558.618225 374.375916,559.569580 
	C380.475281,560.586365 386.986725,558.859375 393.323975,558.778870 
	C405.839569,558.619751 418.359100,558.794250 430.876862,558.762817 
	C432.487885,558.758728 434.101288,558.372070 435.707611,558.123962 
	C437.974426,557.773804 440.231598,557.094971 442.499908,557.063416 
	C460.314087,556.815857 478.129730,556.621094 495.945435,556.554626 
	C504.563110,556.522522 513.188538,557.073303 521.798462,556.864563 
	C530.743286,556.647766 539.669373,555.737366 548.612854,555.335754 
	C551.380432,555.211487 554.183716,556.014526 556.961060,555.953857 
	C566.667969,555.741821 576.368530,555.221619 586.075562,555.041077 
	C594.928162,554.876404 603.788452,555.127563 612.641113,554.965454 
	C623.269958,554.770874 633.895142,554.356628 644.520325,553.991455 
	C651.063660,553.766602 657.872375,552.176331 664.083679,553.479187 
	C673.730774,555.502747 683.093262,552.851868 692.652161,553.700256 
	C702.909546,554.610596 713.366394,553.178528 723.739990,552.913269 
	C729.014343,552.778442 734.300598,553.101807 739.574341,552.956604 
	C743.942444,552.836304 748.299866,552.332764 753.022217,551.989746 
	C752.918762,557.046265 752.455017,562.112244 751.883179,567.589600 
	C741.753967,568.044495 731.729614,567.943481 721.713013,568.175781 
	C713.269775,568.371643 704.834778,568.942078 696.398132,569.383545 
	C695.420776,569.434631 694.327881,570.109314 693.504700,569.838379 
	C685.338440,567.149841 677.239746,569.466431 669.096191,569.868347 
	C661.526001,570.241882 653.922119,569.871277 646.337341,570.029541 
	C637.953552,570.204468 629.576172,570.764954 621.192871,570.851196 
	C616.482239,570.899597 611.766846,570.147217 607.050537,570.106812 
	C604.289246,570.083191 601.531311,570.900208 598.755249,571.072937 
	C594.245056,571.353577 589.721924,571.439880 585.203003,571.563538 
	C580.348389,571.696472 575.492737,571.835266 570.636841,571.866943 
	C565.054077,571.903381 559.466736,571.680847 553.888123,571.826904 
	C542.398132,572.127747 530.914673,572.810486 519.424438,572.924988 
	C511.881683,573.000183 504.328247,572.026733 496.785889,572.107971 
	C484.422760,572.241028 472.066406,572.915771 459.703827,573.229370 
	C453.838593,573.378174 447.963470,573.117859 442.096802,573.237549 
	C437.972595,573.321655 433.856171,573.941284 429.734344,573.963623 
	C413.379974,574.052246 397.020325,573.763855 380.671478,574.076111 
	C368.000610,574.318115 355.346527,575.347046 342.676971,575.804382 
	C339.069153,575.934570 335.427277,574.991882 331.811646,575.065247 
	C325.352692,575.196228 318.905212,575.932739 312.446777,576.037598 
	C303.775177,576.178467 295.097687,575.906616 286.422791,575.912170 
	C279.334595,575.916687 272.246613,576.084351 265.158234,576.148499 
	C261.070648,576.185547 256.981934,576.119690 252.894852,576.178406 
	C250.253464,576.216370 247.614838,576.469971 244.973709,576.495728 
	C240.286453,576.541504 235.597214,576.424438 230.910782,576.499329 
	C228.130554,576.543701 225.356400,576.909424 222.575562,576.985168 
	C211.339691,577.291138 200.090866,577.967651 188.869293,577.667419 
	C180.824203,577.452209 172.980606,577.574402 164.951172,578.722778 
	C158.099548,579.702698 150.910614,578.072571 143.873062,578.102905 
	C139.985840,578.119690 136.115814,579.530334 132.214966,579.670593 
	C127.864410,579.827026 123.489891,579.140564 119.121254,579.055847 
	C117.340050,579.021301 115.546875,579.603943 113.346893,579.961548 
	C111.691322,574.608582 110.448021,569.199829 109.202621,563.394592 
z"/>
<path fill="#009CF2" opacity="1.000000" stroke="none" 
	d="
M395.867523,205.045166 
	C398.113983,205.007263 400.360413,204.965714 402.606934,204.932129 
	C408.931122,204.837631 415.255219,204.693878 421.579681,204.670349 
	C426.753540,204.651108 431.932220,204.937973 437.101196,204.802109 
	C445.822449,204.572830 454.538269,204.128433 463.255280,203.749054 
	C466.474365,203.608948 469.692993,203.207916 472.907227,203.253021 
	C482.442749,203.386856 491.975189,203.754684 501.510742,203.861359 
	C503.621185,203.884995 505.739471,202.920456 507.854034,202.920975 
	C511.680511,202.921921 515.508667,203.508270 519.332825,203.474335 
	C523.086609,203.441025 526.831421,202.808853 530.588684,202.672424 
	C537.961487,202.404678 545.340210,202.296738 552.716553,202.126740 
	C555.964050,202.051880 559.213806,201.884109 562.458923,201.945282 
	C565.986023,202.011765 569.509277,202.289688 573.033508,202.488297 
	C573.842468,202.533875 574.657654,202.749374 575.454285,202.686630 
	C579.981506,202.329987 584.496765,201.750671 589.029541,201.553177 
	C596.184326,201.241425 603.350159,201.188751 610.510498,200.996017 
	C619.694702,200.748871 628.876831,200.325211 638.062073,200.254272 
	C645.268188,200.198624 652.484802,200.854202 659.683777,200.673920 
	C670.882446,200.393478 682.070007,199.672379 693.262085,199.134674 
	C693.759827,199.110764 694.257629,199.002258 694.752563,199.019043 
	C703.875000,199.328232 712.997192,199.902695 722.118835,199.890671 
	C729.485962,199.880951 736.849426,199.101913 744.220032,198.798477 
	C747.138489,198.678329 750.072021,198.921265 753.416138,198.998077 
	C753.879883,208.354797 753.926025,217.712326 753.482544,227.534271 
	C750.036804,227.668030 747.075439,227.014847 744.125549,227.063492 
	C732.416931,227.256592 720.713135,227.720581 709.005188,227.980576 
	C702.092651,228.134064 695.168884,227.912842 688.262512,228.180313 
	C676.748718,228.626236 665.171509,230.386795 653.759888,229.594177 
	C644.377014,228.942474 635.205688,229.942139 625.942993,230.042511 
	C615.125671,230.159729 604.313904,230.730026 593.496521,230.934311 
	C588.434753,231.029892 583.364136,230.766174 578.300049,230.591187 
	C575.158264,230.482620 572.009216,229.960495 568.884277,230.098389 
	C556.880798,230.628067 544.888916,231.420853 532.885193,231.942551 
	C530.281311,232.055740 527.639099,231.163681 525.026855,231.229019 
	C513.587097,231.515228 502.153931,232.066330 490.714081,232.346252 
	C485.819489,232.466003 480.911285,231.987778 476.014801,232.079086 
	C464.758057,232.288986 453.505707,232.874115 442.249664,232.932037 
	C434.794281,232.970428 427.335602,232.359406 419.566040,231.909637 
	C415.552521,227.080780 411.851379,222.381439 408.036804,217.375153 
	C403.904785,213.060547 399.886169,209.052856 395.867523,205.045166 
z"/>
<path fill="#00C8F6" opacity="1.000000" stroke="none" 
	d="
M108.166679,480.997772 
	C108.119827,458.640808 108.072975,436.283813 108.507172,413.465088 
	C113.230759,413.047028 117.474480,413.041840 121.715584,413.144684 
	C130.084351,413.347504 138.454132,413.859222 146.818909,413.776978 
	C154.918747,413.697327 162.994507,410.451385 171.135757,413.890137 
	C172.396698,414.422760 174.102264,413.989960 175.592697,413.877533 
	C183.597183,413.273712 191.591568,412.257141 199.603165,412.105072 
	C207.577713,411.953766 215.824982,414.022217 223.477020,412.584991 
	C230.541183,411.258148 237.139389,415.234528 244.199371,412.294739 
	C247.856628,410.771912 252.659851,412.001129 256.907898,412.352631 
	C252.038864,423.523834 249.653778,434.793030 250.065811,446.676270 
	C250.447388,457.681427 254.140671,467.784180 257.780090,478.166168 
	C243.916687,478.994141 230.333801,479.517883 216.750168,480.020844 
	C212.607742,480.174194 208.463867,480.329987 204.319427,480.378113 
	C198.794647,480.442291 193.265274,480.522675 187.744278,480.367920 
	C183.580856,480.251160 178.503128,478.148163 175.494553,479.856506 
	C171.377350,482.194427 167.931107,480.883209 164.195892,480.959290 
	C162.235825,480.999176 160.257370,480.389282 158.304184,480.472229 
	C147.961044,480.911530 137.627869,481.708679 127.281952,481.914703 
	C120.918808,482.041443 114.539001,481.331848 108.166679,480.997772 
z"/>
<path fill="#01BCF4" opacity="1.000000" stroke="none" 
	d="
M256.945343,411.987000 
	C252.659851,412.001129 247.856628,410.771912 244.199371,412.294739 
	C237.139389,415.234528 230.541183,411.258148 223.477020,412.584991 
	C215.824982,414.022217 207.577713,411.953766 199.603165,412.105072 
	C191.591568,412.257141 183.597183,413.273712 175.592697,413.877533 
	C174.102264,413.989960 172.396698,414.422760 171.135757,413.890137 
	C162.994507,410.451385 154.918747,413.697327 146.818909,413.776978 
	C138.454132,413.859222 130.084351,413.347504 121.715584,413.144684 
	C117.474480,413.041840 113.230759,413.047028 108.577202,413.001068 
	C108.119270,387.307922 108.072357,361.617035 108.499390,335.464294 
	C119.253380,335.276611 129.533813,335.782227 139.813385,335.765045 
	C152.036255,335.744659 164.259323,335.309265 176.480164,334.975250 
	C179.431473,334.894562 182.658447,333.612488 185.262985,334.441010 
	C190.988449,336.262390 196.340942,335.008118 201.790894,333.899750 
	C202.658157,333.723389 203.322693,332.550262 204.318512,332.126068 
	C208.695496,341.945984 212.834946,351.477753 217.025452,361.355621 
	C220.133270,366.221222 222.789368,371.085297 226.323151,375.194611 
	C236.252747,386.741364 246.177017,398.407898 260.683685,404.774963 
	C260.654816,404.934296 260.882996,405.164185 260.740051,405.459961 
	C259.379852,407.832794 258.162598,409.909882 256.945343,411.987000 
z"/>
<path fill="#00F0F8" opacity="1.000000" stroke="none" 
	d="
M730.616089,622.903992 
	C722.871216,622.468201 715.388000,621.658386 707.882996,621.267761 
	C705.060303,621.120850 702.108154,621.649048 699.350769,622.380859 
	C688.439636,625.276978 677.393372,621.560242 666.546570,623.099915 
	C651.662598,625.212585 636.711487,622.377319 621.775879,624.560608 
	C614.558655,625.615662 606.928406,623.727478 599.475830,623.362732 
	C597.203674,623.251526 594.905212,623.858276 592.610352,623.996399 
	C581.152466,624.686584 569.698608,625.582642 558.229431,625.895447 
	C551.373413,626.082397 544.484070,624.945068 537.623413,625.083679 
	C525.102112,625.336731 512.594604,626.418640 500.074738,626.557495 
	C485.920258,626.714661 471.758911,626.137878 457.599548,626.051025 
	C453.812164,626.027771 450.026031,626.769470 446.230255,626.905090 
	C441.490417,627.074524 436.735504,626.838745 431.997131,627.028137 
	C420.463776,627.489258 408.940430,628.239563 397.404419,628.578552 
	C392.005066,628.737244 386.582428,627.977661 381.176117,628.052246 
	C371.743469,628.182251 362.317078,628.712402 352.884766,628.934448 
	C340.505981,629.225952 327.943237,630.759705 315.799561,629.166992 
	C305.769592,627.851501 296.124512,629.898560 286.268494,629.221497 
	C277.910126,628.647400 269.424927,630.188416 260.985382,630.436768 
	C254.802780,630.618713 248.603165,630.119812 242.411194,630.121216 
	C238.446411,630.122070 234.480316,630.664856 230.517334,630.634399 
	C225.297562,630.594299 220.076187,629.977600 214.862839,630.062012 
	C206.157288,630.202881 197.460129,630.819336 188.754486,631.014221 
	C182.078094,631.163635 175.394104,630.958008 168.713409,630.937744 
	C165.300507,630.927429 161.719742,630.326721 158.513840,631.153015 
	C153.722168,632.387878 149.326767,632.572632 144.605087,630.899536 
	C142.973785,630.321411 140.712158,631.522034 138.375748,631.953369 
	C134.945282,627.606018 131.877533,623.215454 128.704681,618.479675 
	C136.846558,618.088257 145.095581,618.140808 153.340057,617.971680 
	C164.748825,617.737671 176.219894,617.946289 187.530716,616.726685 
	C192.496674,616.191223 197.218872,617.364624 201.905807,616.848267 
	C213.094009,615.615906 224.226974,617.972900 235.581589,615.776184 
	C244.004913,614.146545 253.163223,616.650330 261.998627,616.716614 
	C269.877014,616.775818 277.761658,616.018433 285.643402,615.618896 
	C289.691223,615.413757 293.742218,615.254272 297.785797,614.984741 
	C308.568176,614.265930 319.362854,617.146667 330.211517,614.325195 
	C334.151764,613.300476 338.636292,614.529602 342.863434,614.409790 
	C349.332458,614.226562 355.790649,613.667236 362.259583,613.468689 
	C365.023163,613.383911 367.846771,614.218445 370.566589,613.925354 
	C381.495422,612.747681 392.445526,615.481995 403.437836,613.225830 
	C407.882355,612.313599 412.808655,614.084290 417.488617,613.909546 
	C425.829956,613.597961 434.144836,612.628479 442.483765,612.169800 
	C444.917908,612.035889 447.400970,612.993347 449.853088,612.951294 
	C463.170197,612.723389 476.483429,612.268677 489.800507,612.034668 
	C497.971222,611.891052 506.148560,612.121704 514.319092,611.972290 
	C526.692688,611.746155 539.061218,611.209595 551.435059,611.038757 
	C563.522278,610.871887 575.615356,611.126831 587.702576,610.960449 
	C600.243835,610.787842 612.781982,610.360901 625.319885,609.990417 
	C634.610046,609.715942 643.896423,609.144470 653.186646,609.092102 
	C661.730042,609.043884 670.277039,609.720398 678.821106,609.690369 
	C686.274719,609.664185 693.723572,608.982361 701.179626,608.804871 
	C708.026611,608.641907 714.880676,608.806702 721.730957,608.745789 
	C725.252869,608.714478 728.776855,608.357849 732.292480,608.446350 
	C733.808167,608.484497 735.304749,609.278259 737.014282,610.043823 
	C735.101990,614.471497 732.985535,618.584045 730.616089,622.903992 
z"/>
<path fill="#01A1F2" opacity="1.000000" stroke="none" 
	d="
M419.878387,232.039124 
	C427.335602,232.359406 434.794281,232.970428 442.249664,232.932037 
	C453.505707,232.874115 464.758057,232.288986 476.014801,232.079086 
	C480.911285,231.987778 485.819489,232.466003 490.714081,232.346252 
	C502.153931,232.066330 513.587097,231.515228 525.026855,231.229019 
	C527.639099,231.163681 530.281311,232.055740 532.885193,231.942551 
	C544.888916,231.420853 556.880798,230.628067 568.884277,230.098389 
	C572.009216,229.960495 575.158264,230.482620 578.300049,230.591187 
	C583.364136,230.766174 588.434753,231.029892 593.496521,230.934311 
	C604.313904,230.730026 615.125671,230.159729 625.942993,230.042511 
	C635.205688,229.942139 644.377014,228.942474 653.759888,229.594177 
	C665.171509,230.386795 676.748718,228.626236 688.262512,228.180313 
	C695.168884,227.912842 702.092651,228.134064 709.005188,227.980576 
	C720.713135,227.720581 732.416931,227.256592 744.125549,227.063492 
	C747.075439,227.014847 750.036804,227.668030 753.413391,227.998215 
	C753.879944,235.355255 753.925964,242.712769 753.450684,250.534790 
	C748.310486,250.841797 743.683533,250.435593 739.074280,250.582916 
	C731.465454,250.826096 723.872375,251.534714 716.264343,251.839798 
	C710.941345,252.053238 705.604553,251.924759 700.273926,251.941971 
	C696.524963,251.954086 692.775818,251.983231 689.027161,251.950714 
	C686.109314,251.925415 683.186646,251.666794 680.275696,251.773026 
	C671.228333,252.103256 662.187500,252.816910 653.140320,252.887100 
	C645.042847,252.949921 636.941040,252.153488 628.839539,252.120117 
	C622.814514,252.095291 616.788635,252.723862 610.759949,252.987900 
	C605.553406,253.215912 600.342651,253.463638 595.132996,253.481079 
	C587.665100,253.506073 580.188538,253.074493 572.730103,253.304352 
	C563.626953,253.584885 554.542603,254.709320 545.442993,254.808182 
	C535.091187,254.920670 524.732056,254.096954 514.375122,254.072662 
	C506.764099,254.054794 499.144135,254.561203 491.545837,255.089081 
	C489.976166,255.198135 488.484833,256.434906 486.591278,257.102112 
	C467.500458,248.188599 447.853760,243.556030 426.934296,244.044479 
	C426.802856,243.928009 426.451813,243.916458 426.336304,243.571762 
	C424.513275,240.418106 422.805756,237.609146 420.966797,234.512985 
	C420.516388,233.496887 420.197388,232.768005 419.878387,232.039124 
z"/>
<path fill="#00D4F6" opacity="1.000000" stroke="none" 
	d="
M108.096863,481.462036 
	C114.539001,481.331848 120.918808,482.041443 127.281952,481.914703 
	C137.627869,481.708679 147.961044,480.911530 158.304184,480.472229 
	C160.257370,480.389282 162.235825,480.999176 164.195892,480.959290 
	C167.931107,480.883209 171.377350,482.194427 175.494553,479.856506 
	C178.503128,478.148163 183.580856,480.251160 187.744278,480.367920 
	C193.265274,480.522675 198.794647,480.442291 204.319427,480.378113 
	C208.463867,480.329987 212.607742,480.174194 216.750168,480.020844 
	C230.333801,479.517883 243.916687,478.994141 258.085571,478.340057 
	C260.269409,480.677002 261.793365,483.203949 263.478058,485.618805 
	C272.214386,498.141388 283.927338,507.144073 297.526001,513.721558 
	C302.138306,515.952454 307.162048,517.332642 311.997772,519.101562 
	C311.324768,519.564880 310.648468,520.431213 309.979309,520.425720 
	C305.745270,520.391052 301.508698,519.956421 297.280640,520.040100 
	C286.954926,520.244385 276.635437,520.818420 266.309692,520.949158 
	C253.065292,521.116943 239.815582,520.868896 226.571213,521.037903 
	C214.687637,521.189514 202.807404,521.637817 190.927155,522.003052 
	C181.358215,522.297180 171.541122,524.140808 162.295242,522.574707 
	C153.325775,521.055420 144.771591,523.495117 135.907837,522.332275 
	C127.145653,521.182678 118.037582,522.669617 108.623718,523.000000 
	C108.119820,509.308716 108.073433,495.617493 108.096863,481.462036 
z"/>
<path fill="#00A7F3" opacity="1.000000" stroke="none" 
	d="
M486.957397,257.151917 
	C488.484833,256.434906 489.976166,255.198135 491.545837,255.089081 
	C499.144135,254.561203 506.764099,254.054794 514.375122,254.072662 
	C524.732056,254.096954 535.091187,254.920670 545.442993,254.808182 
	C554.542603,254.709320 563.626953,253.584885 572.730103,253.304352 
	C580.188538,253.074493 587.665100,253.506073 595.132996,253.481079 
	C600.342651,253.463638 605.553406,253.215912 610.759949,252.987900 
	C616.788635,252.723862 622.814514,252.095291 628.839539,252.120117 
	C636.941040,252.153488 645.042847,252.949921 653.140320,252.887100 
	C662.187500,252.816910 671.228333,252.103256 680.275696,251.773026 
	C683.186646,251.666794 686.109314,251.925415 689.027161,251.950714 
	C692.775818,251.983231 696.524963,251.954086 700.273926,251.941971 
	C705.604553,251.924759 710.941345,252.053238 716.264343,251.839798 
	C723.872375,251.534714 731.465454,250.826096 739.074280,250.582916 
	C743.683533,250.435593 748.310486,250.841797 753.381470,250.998688 
	C753.879456,259.022034 753.925415,267.045959 753.509216,275.545624 
	C748.801392,276.014252 744.551758,275.887970 740.311096,276.030121 
	C735.016113,276.207672 729.729919,276.816162 724.437378,276.850983 
	C719.001587,276.886749 713.564453,276.387726 708.124634,276.252411 
	C704.554688,276.163605 700.976746,276.238831 697.406250,276.355927 
	C687.550781,276.679138 677.699707,277.222290 667.842224,277.372467 
	C659.947876,277.492737 652.039795,276.900787 644.150391,277.107483 
	C635.695374,277.328979 627.262146,278.346588 618.806885,278.597809 
	C607.303894,278.939545 595.788635,278.988434 584.279419,278.948792 
	C579.487976,278.932312 574.684326,277.960480 569.910767,278.126526 
	C558.230164,278.532867 546.569946,279.563446 534.888855,279.900299 
	C529.819275,280.046509 524.782715,279.585785 519.770508,281.841858 
	C510.060394,271.623260 498.815094,263.982147 486.957397,257.151917 
z"/>
<path fill="#00AEF3" opacity="1.000000" stroke="none" 
	d="
M520.076355,281.981537 
	C524.782715,279.585785 529.819275,280.046509 534.888855,279.900299 
	C546.569946,279.563446 558.230164,278.532867 569.910767,278.126526 
	C574.684326,277.960480 579.487976,278.932312 584.279419,278.948792 
	C595.788635,278.988434 607.303894,278.939545 618.806885,278.597809 
	C627.262146,278.346588 635.695374,277.328979 644.150391,277.107483 
	C652.039795,276.900787 659.947876,277.492737 667.842224,277.372467 
	C677.699707,277.222290 687.550781,276.679138 697.406250,276.355927 
	C700.976746,276.238831 704.554688,276.163605 708.124634,276.252411 
	C713.564453,276.387726 719.001587,276.886749 724.437378,276.850983 
	C729.729919,276.816162 735.016113,276.207672 740.311096,276.030121 
	C744.551758,275.887970 748.801392,276.014252 753.440308,276.009583 
	C753.879578,284.688568 753.925537,293.379272 753.490967,302.548157 
	C750.225586,303.350830 747.437927,303.961975 744.656555,303.934570 
	C740.202087,303.890656 735.736755,303.040985 731.302979,303.215698 
	C722.384827,303.567108 713.491699,304.522217 704.574890,304.951019 
	C698.651001,305.235931 692.701965,304.951569 686.767700,305.081635 
	C678.900269,305.254059 671.037903,305.692627 663.170288,305.813965 
	C654.406067,305.949127 645.635742,305.725433 636.873108,305.905518 
	C630.144714,306.043793 623.422913,306.875854 616.700439,306.847473 
	C605.562744,306.800446 594.426270,306.049133 583.290466,306.074860 
	C570.931152,306.103424 558.573486,306.683167 546.214355,306.993103 
	C543.468384,307.061951 540.719299,307.006317 537.709900,306.791412 
	C531.657593,298.377075 525.866943,290.179321 520.076355,281.981537 
z"/>
<path fill="#00C0F5" opacity="1.000000" stroke="none" 
	d="
M753.834106,367.999634 
	C753.879639,386.689728 753.925171,405.379761 753.509033,424.545624 
	C749.980896,425.015656 746.907593,424.875885 743.848999,425.028473 
	C733.301819,425.554596 722.762573,426.544189 712.214722,426.625153 
	C706.627380,426.668030 701.368347,424.088196 695.303345,426.356201 
	C691.407471,427.812988 686.374084,426.179810 681.847656,426.008545 
	C672.254822,425.645508 662.660034,425.332764 653.001831,424.537872 
	C653.320435,404.440521 648.549622,386.113800 639.322510,368.970825 
	C640.493225,368.722412 641.296265,368.324585 642.091125,368.340210 
	C650.725586,368.510071 659.367859,369.095062 667.989929,368.870514 
	C678.106201,368.607056 688.198425,367.512360 698.313965,367.077240 
	C701.986755,366.919281 705.698120,367.889618 709.389160,367.868073 
	C714.254456,367.839691 719.120361,367.049805 723.980042,367.105927 
	C733.933533,367.220825 743.882996,367.681396 753.834106,367.999634 
z"/>
<path fill="#00CAF6" opacity="1.000000" stroke="none" 
	d="
M653.066040,424.999420 
	C662.660034,425.332764 672.254822,425.645508 681.847656,426.008545 
	C686.374084,426.179810 691.407471,427.812988 695.303345,426.356201 
	C701.368347,424.088196 706.627380,426.668030 712.214722,426.625153 
	C722.762573,426.544189 733.301819,425.554596 743.848999,425.028473 
	C746.907593,424.875885 749.980896,425.015656 753.440674,425.009644 
	C753.879456,441.688538 753.924988,458.379242 753.468018,475.534637 
	C751.467834,476.030640 749.969788,476.051758 748.472412,476.094940 
	C738.195984,476.391083 727.920837,476.761200 717.642456,476.937469 
	C715.359619,476.976654 713.025574,475.891846 710.782959,476.090332 
	C702.264038,476.844299 693.774658,477.982697 685.260803,476.087494 
	C684.800354,475.985016 684.277222,476.179260 683.781860,476.216187 
	C675.701782,476.818756 667.627197,477.520782 659.538513,477.968201 
	C656.270569,478.148895 652.692810,476.899261 649.748657,477.840820 
	C644.575439,479.495270 640.822388,477.552032 637.073730,474.556763 
	C647.046021,459.296112 651.583069,442.640289 653.066040,424.999420 
z"/>
<path fill="#01B4F4" opacity="1.000000" stroke="none" 
	d="
M537.971619,307.007965 
	C540.719299,307.006317 543.468384,307.061951 546.214355,306.993103 
	C558.573486,306.683167 570.931152,306.103424 583.290466,306.074860 
	C594.426270,306.049133 605.562744,306.800446 616.700439,306.847473 
	C623.422913,306.875854 630.144714,306.043793 636.873108,305.905518 
	C645.635742,305.725433 654.406067,305.949127 663.170288,305.813965 
	C671.037903,305.692627 678.900269,305.254059 686.767700,305.081635 
	C692.701965,304.951569 698.651001,305.235931 704.574890,304.951019 
	C713.491699,304.522217 722.384827,303.567108 731.302979,303.215698 
	C735.736755,303.040985 740.202087,303.890656 744.656555,303.934570 
	C747.437927,303.961975 750.225586,303.350830 753.422119,303.012146 
	C753.879761,313.022095 753.925720,323.046173 753.526733,333.526001 
	C744.134827,333.366974 735.195618,332.484192 726.238464,332.228271 
	C719.888428,332.046875 713.516724,332.846344 707.150085,332.970520 
	C695.981079,333.188416 684.808105,333.188599 673.637939,333.357727 
	C670.254333,333.408966 666.874634,333.716492 663.493103,333.906891 
	C658.302429,334.199127 653.112671,334.714264 647.920837,334.736725 
	C637.720093,334.780884 627.518250,334.476166 617.316833,334.472900 
	C613.444397,334.471680 609.571777,334.903625 605.355591,335.101868 
	C602.564270,333.694977 600.162720,332.232910 597.661316,330.968628 
	C582.036316,323.071777 565.454529,319.580414 547.963562,320.021240 
	C546.211060,320.065399 543.601379,319.196716 542.811890,317.891357 
	C540.773376,314.520660 539.531616,310.668091 537.971619,307.007965 
z"/>
<path fill="#00D5F6" opacity="1.000000" stroke="none" 
	d="
M636.961487,474.878387 
	C640.822388,477.552032 644.575439,479.495270 649.748657,477.840820 
	C652.692810,476.899261 656.270569,478.148895 659.538513,477.968201 
	C667.627197,477.520782 675.701782,476.818756 683.781860,476.216187 
	C684.277222,476.179260 684.800354,475.985016 685.260803,476.087494 
	C693.774658,477.982697 702.264038,476.844299 710.782959,476.090332 
	C713.025574,475.891846 715.359619,476.976654 717.642456,476.937469 
	C727.920837,476.761200 738.195984,476.391083 748.472412,476.094940 
	C749.969788,476.051758 751.467834,476.030640 753.399658,475.998718 
	C753.879639,488.022522 753.925476,500.046997 753.902649,512.535767 
	C746.059814,513.327515 738.287231,513.864685 730.511230,513.917908 
	C723.984985,513.962646 717.447876,513.110291 710.928223,513.249512 
	C700.440918,513.473389 689.966003,514.234131 679.481628,514.665710 
	C676.239075,514.799194 672.982727,514.603516 669.732788,514.552368 
	C658.708801,514.378845 647.677490,513.876709 636.663025,514.125122 
	C626.927185,514.344727 617.218079,515.719055 607.481750,515.958862 
	C602.117981,516.090881 596.722595,514.935730 591.326111,513.774170 
	C610.136047,504.717712 625.533142,492.162689 636.961487,474.878387 
z"/>
<path fill="#01B0F3" opacity="1.000000" stroke="none" 
	d="
M204.080963,331.837952 
	C203.322693,332.550262 202.658157,333.723389 201.790894,333.899750 
	C196.340942,335.008118 190.988449,336.262390 185.262985,334.441010 
	C182.658447,333.612488 179.431473,334.894562 176.480164,334.975250 
	C164.259323,335.309265 152.036255,335.744659 139.813385,335.765045 
	C129.533813,335.782227 119.253380,335.276611 108.569908,335.000305 
	C108.119164,318.640869 108.071838,302.283539 108.494156,285.474854 
	C112.355171,285.009979 115.750168,285.086029 119.136505,284.948639 
	C121.086121,284.869568 123.024590,284.193909 124.963165,284.216125 
	C140.127808,284.389801 155.291107,284.837952 170.455154,284.853394 
	C180.581085,284.863708 190.707581,284.303986 200.889648,284.433411 
	C200.717636,288.911163 200.489807,292.954895 200.162827,297.452881 
	C201.493698,308.936401 202.923721,319.965637 204.290878,331.207397 
	C204.228012,331.419891 204.080978,331.837982 204.080963,331.837952 
z"/>
<path fill="#01BAF4" opacity="1.000000" stroke="none" 
	d="
M605.699280,335.138123 
	C609.571777,334.903625 613.444397,334.471680 617.316833,334.472900 
	C627.518250,334.476166 637.720093,334.780884 647.920837,334.736725 
	C653.112671,334.714264 658.302429,334.199127 663.493103,333.906891 
	C666.874634,333.716492 670.254333,333.408966 673.637939,333.357727 
	C684.808105,333.188599 695.981079,333.188416 707.150085,332.970520 
	C713.516724,332.846344 719.888428,332.046875 726.238464,332.228271 
	C735.195618,332.484192 744.134827,333.366974 753.457886,333.990021 
	C753.879944,345.022614 753.925842,356.046936 753.902954,367.535461 
	C743.882996,367.681396 733.933533,367.220825 723.980042,367.105927 
	C719.120361,367.049805 714.254456,367.839691 709.389160,367.868073 
	C705.698120,367.889618 701.986755,366.919281 698.313965,367.077240 
	C688.198425,367.512360 678.106201,368.607056 667.989929,368.870514 
	C659.367859,369.095062 650.725586,368.510071 642.091125,368.340210 
	C641.296265,368.324585 640.493225,368.722412 639.050415,368.775940 
	C630.213074,354.815918 618.805542,344.147430 605.699280,335.138123 
z"/>
<path fill="#009CF2" opacity="1.000000" stroke="none" 
	d="
M108.095581,210.461349 
	C118.522034,209.677155 128.875748,209.203659 139.233444,209.088928 
	C146.599548,209.007370 153.974335,209.631607 161.339005,209.522003 
	C166.808533,209.440582 172.267517,208.311584 177.732147,208.303543 
	C193.732224,208.279984 209.732681,208.682434 225.733200,208.697174 
	C230.360001,208.701447 234.987503,207.960617 239.701889,208.147766 
	C235.848434,213.152267 231.907761,217.570389 227.663422,222.132690 
	C223.540283,228.117081 219.720795,233.957245 215.620911,239.974442 
	C214.773865,241.099136 214.207214,242.046799 213.229401,242.996246 
	C203.642868,243.332031 194.448425,244.194031 185.296997,243.863983 
	C174.293777,243.467133 163.388489,245.289230 152.343109,244.327576 
	C144.904434,243.679932 137.317673,244.701401 129.798798,245.015244 
	C122.586884,245.316269 115.377075,245.667633 108.166344,245.996887 
	C108.119080,234.306412 108.071815,222.615936 108.095581,210.461349 
z"/>
<path fill="#01A5F2" opacity="1.000000" stroke="none" 
	d="
M108.095329,246.461029 
	C115.377075,245.667633 122.586884,245.316269 129.798798,245.015244 
	C137.317673,244.701401 144.904434,243.679932 152.343109,244.327576 
	C163.388489,245.289230 174.293777,243.467133 185.296997,243.863983 
	C194.448425,244.194031 203.642868,243.332031 213.143066,243.325439 
	C211.515930,248.399139 209.563980,253.145477 207.384430,258.158508 
	C206.035858,262.597076 204.914902,266.768951 203.548859,271.226440 
	C202.746933,274.632294 202.190079,277.752594 201.383011,281.099335 
	C201.033142,282.216980 200.933487,283.108185 200.833832,283.999390 
	C190.707581,284.303986 180.581085,284.863708 170.455154,284.853394 
	C155.291107,284.837952 140.127808,284.389801 124.963165,284.216125 
	C123.024590,284.193909 121.086121,284.869568 119.136505,284.948639 
	C115.750168,285.086029 112.355171,285.009979 108.564819,285.010864 
	C108.118668,272.307220 108.071487,259.616180 108.095329,246.461029 
z"/>
<path fill="#FDCD0F" opacity="1.000000" stroke="none" 
	d="
M227.967102,221.988480 
	C231.907761,217.570389 235.848434,213.152267 239.913605,208.425949 
	C278.111053,175.037445 332.025696,168.639008 375.688690,192.051575 
	C382.524933,195.717255 388.724884,200.569550 395.543274,204.959167 
	C399.886169,209.052856 403.904785,213.060547 407.840057,217.691895 
	C406.888336,218.777359 406.026337,219.627823 405.150574,219.642151 
	C393.661285,219.830276 382.170135,219.913071 370.679260,219.996231 
	C360.204529,220.072037 349.728302,220.033600 339.255005,220.194000 
	C324.466278,220.420486 309.678436,220.736176 294.892456,221.103745 
	C283.372345,221.390121 271.854431,221.778946 260.338074,222.193237 
	C255.635086,222.362442 250.935898,222.978607 246.240265,222.925400 
	C240.146439,222.856354 234.057907,222.322342 227.967102,221.988480 
z"/>
<path fill="#E6F9FE" opacity="1.000000" stroke="none" 
	d="
M605.355591,335.101868 
	C618.805542,344.147430 630.213074,354.815918 638.678833,368.818542 
	C648.549622,386.113800 653.320435,404.440521 653.001831,424.537872 
	C651.583069,442.640289 647.046021,459.296112 637.073730,474.556763 
	C625.533142,492.162689 610.136047,504.717712 591.116760,513.468140 
	C568.922241,522.308167 545.882751,521.036377 522.955261,521.017761 
	C459.806885,520.966614 396.658264,521.065491 333.510254,520.906494 
	C326.612366,520.889160 319.717712,519.579468 312.409668,518.985352 
	C307.162048,517.332642 302.138306,515.952454 297.526001,513.721558 
	C283.927338,507.144073 272.214386,498.141388 263.478058,485.618805 
	C261.793365,483.203949 260.269409,480.677002 258.365845,478.027863 
	C254.140671,467.784180 250.447388,457.681427 250.065811,446.676270 
	C249.653778,434.793030 252.038864,423.523834 256.907898,412.352631 
	C258.162598,409.909882 259.379852,407.832794 261.069214,405.551086 
	C269.731659,408.902771 277.682861,413.237488 286.165192,415.843109 
	C300.961395,420.388275 316.130463,421.977753 331.773590,420.200256 
	C344.954224,418.702606 357.575439,415.654694 369.490479,410.135406 
	C392.709503,399.379883 410.977570,382.836365 423.574066,360.557770 
	C438.920258,333.416016 444.120453,304.359894 436.960114,273.764008 
	C434.599426,263.676941 430.415833,254.016479 427.065735,244.160950 
	C447.853760,243.556030 467.500458,248.188599 486.591278,257.102112 
	C498.815094,263.982147 510.060394,271.623260 519.770508,281.841858 
	C525.866943,290.179321 531.657593,298.377075 537.709900,306.791412 
	C539.531616,310.668091 540.773376,314.520660 542.811890,317.891357 
	C543.601379,319.196716 546.211060,320.065399 547.963562,320.021240 
	C565.454529,319.580414 582.036316,323.071777 597.661316,330.968628 
	C600.162720,332.232910 602.564270,333.694977 605.355591,335.101868 
z"/>
<path fill="#FED015" opacity="1.000000" stroke="none" 
	d="
M227.663422,222.132690 
	C234.057907,222.322342 240.146439,222.856354 246.240265,222.925400 
	C250.935898,222.978607 255.635086,222.362442 260.338074,222.193237 
	C271.854431,221.778946 283.372345,221.390121 294.892456,221.103745 
	C309.678436,220.736176 324.466278,220.420486 339.255005,220.194000 
	C349.728302,220.033600 360.204529,220.072037 370.679260,219.996231 
	C382.170135,219.913071 393.661285,219.830276 405.150574,219.642151 
	C406.026337,219.627823 406.888336,218.777359 407.953461,217.998810 
	C411.851379,222.381439 415.552521,227.080780 419.566040,231.909637 
	C420.197388,232.768005 420.516388,233.496887 420.770325,234.874237 
	C419.203278,236.014984 417.709900,236.906387 416.197937,236.939117 
	C396.579468,237.363815 376.959045,237.724335 357.337585,237.978088 
	C345.760651,238.127823 334.174164,237.824524 322.604156,238.153229 
	C310.102509,238.508408 297.621124,239.571716 285.119537,239.935135 
	C274.466431,240.244812 263.795288,239.876144 253.135696,240.039886 
	C244.918747,240.166107 236.708847,240.833618 228.492783,240.903778 
	C224.299072,240.939590 220.098679,240.191299 215.901306,239.797424 
	C219.720795,233.957245 223.540283,228.117081 227.663422,222.132690 
z"/>
<path fill="#FFFCEC" opacity="1.000000" stroke="none" 
	d="
M426.934296,244.044479 
	C430.415833,254.016479 434.599426,263.676941 436.960114,273.764008 
	C444.120453,304.359894 438.920258,333.416016 423.574066,360.557770 
	C410.977570,382.836365 392.709503,399.379883 369.490479,410.135406 
	C357.575439,415.654694 344.954224,418.702606 331.773590,420.200256 
	C316.130463,421.977753 300.961395,420.388275 286.165192,415.843109 
	C277.682861,413.237488 269.731659,408.902771 261.212158,405.255341 
	C260.882996,405.164185 260.654816,404.934296 260.995636,404.553467 
	C271.316162,389.522491 284.422028,378.709930 300.927704,372.159515 
	C310.705750,368.279053 310.739380,368.363800 309.908173,357.530701 
	C311.117737,347.760956 312.280548,338.447693 313.628143,328.836761 
	C318.940369,317.381073 324.067841,306.223114 329.461975,294.877625 
	C333.906036,289.639862 338.083466,284.589569 342.556885,279.361084 
	C346.957153,275.562561 351.061462,271.942230 355.494385,268.203125 
	C362.249878,264.130188 368.676697,260.176056 375.467773,256.154266 
	C391.875977,248.580475 408.842957,244.913574 426.451813,243.916458 
	C426.451813,243.916458 426.802856,243.928009 426.934296,244.044479 
z"/>
<path fill="#FBDE42" opacity="1.000000" stroke="none" 
	d="
M313.443390,329.134460 
	C312.280548,338.447693 311.117737,347.760956 309.505615,357.598572 
	C307.268982,358.415283 305.488159,358.908539 303.693115,358.967438 
	C291.660614,359.362091 279.626129,359.711914 267.590240,359.985138 
	C250.719238,360.368195 233.846436,360.671906 216.974396,361.009583 
	C212.834946,351.477753 208.695496,341.945984 204.318512,332.126099 
	C204.080978,331.837982 204.228012,331.419891 204.707474,331.206787 
	C210.140594,330.676117 215.091049,330.284149 220.049210,330.071716 
	C222.629471,329.961182 225.228882,330.307251 227.810013,330.204773 
	C235.926086,329.882446 244.036880,329.149628 252.151077,329.129639 
	C261.685760,329.106171 271.221893,329.905670 280.757324,329.904266 
	C291.652710,329.902679 302.548035,329.412384 313.443390,329.134460 
z"/>
<path fill="#FAE351" opacity="1.000000" stroke="none" 
	d="
M217.025452,361.355652 
	C233.846436,360.671906 250.719238,360.368195 267.590240,359.985138 
	C279.626129,359.711914 291.660614,359.362091 303.693115,358.967438 
	C305.488159,358.908539 307.268982,358.415283 309.458923,358.055084 
	C310.739380,368.363800 310.705750,368.279053 300.927704,372.159515 
	C284.422028,378.709930 271.316162,389.522491 261.024506,404.394135 
	C246.177017,398.407898 236.252747,386.741364 226.323151,375.194611 
	C222.789368,371.085297 220.133270,366.221222 217.025452,361.355652 
z"/>
<path fill="#FED21D" opacity="1.000000" stroke="none" 
	d="
M426.336304,243.571762 
	C408.842957,244.913574 391.875977,248.580475 375.213684,255.836792 
	C366.064301,255.391251 357.530945,254.964508 349.002686,255.048828 
	C332.144196,255.215454 315.288513,255.663467 298.431702,255.997604 
	C281.657227,256.330139 264.883179,256.685547 248.108139,256.987762 
	C243.169876,257.076721 238.226685,256.926117 233.289841,257.049255 
	C224.728897,257.262787 216.171143,257.604095 207.612061,257.891815 
	C209.563980,253.145477 211.515930,248.399139 213.554199,243.323639 
	C214.207214,242.046799 214.773865,241.099136 215.620911,239.974457 
	C220.098679,240.191299 224.299072,240.939590 228.492783,240.903778 
	C236.708847,240.833618 244.918747,240.166107 253.135696,240.039886 
	C263.795288,239.876144 274.466431,240.244812 285.119537,239.935135 
	C297.621124,239.571716 310.102509,238.508408 322.604156,238.153229 
	C334.174164,237.824524 345.760651,238.127823 357.337585,237.978088 
	C376.959045,237.724335 396.579468,237.363815 416.197937,236.939117 
	C417.709900,236.906387 419.203278,236.014984 420.901764,235.161438 
	C422.805756,237.609146 424.513275,240.418106 426.336304,243.571762 
z"/>
<path fill="#FCDB36" opacity="1.000000" stroke="none" 
	d="
M313.628143,328.836761 
	C302.548035,329.412384 291.652710,329.902679 280.757324,329.904266 
	C271.221893,329.905670 261.685760,329.106171 252.151077,329.129639 
	C244.036880,329.149628 235.926086,329.882446 227.810013,330.204773 
	C225.228882,330.307251 222.629471,329.961182 220.049210,330.071716 
	C215.091049,330.284149 210.140594,330.676117 204.770340,330.994263 
	C202.923721,319.965637 201.493698,308.936401 200.600403,297.452118 
	C205.547089,296.961029 209.958145,296.974182 214.366821,296.878082 
	C222.148758,296.708435 229.932083,296.544952 237.709549,296.243103 
	C245.300293,295.948517 252.882004,295.244995 260.472198,295.168213 
	C266.819305,295.103912 273.418518,296.921021 279.471344,295.717834 
	C291.232178,293.379974 302.855133,295.506195 314.516205,295.036377 
	C319.400909,294.839539 324.301788,295.043427 329.195312,295.065125 
	C324.067841,306.223114 318.940369,317.381073 313.628143,328.836761 
z"/>
<path fill="#FDD82F" opacity="1.000000" stroke="none" 
	d="
M329.461975,294.877625 
	C324.301788,295.043427 319.400909,294.839539 314.516205,295.036377 
	C302.855133,295.506195 291.232178,293.379974 279.471344,295.717834 
	C273.418518,296.921021 266.819305,295.103912 260.472198,295.168213 
	C252.882004,295.244995 245.300293,295.948517 237.709549,296.243103 
	C229.932083,296.544952 222.148758,296.708435 214.366821,296.878082 
	C209.958145,296.974182 205.547089,296.961029 200.699554,296.997864 
	C200.489807,292.954895 200.717636,288.911163 200.889648,284.433411 
	C200.933487,283.108185 201.033142,282.216980 201.845840,281.133514 
	C205.516830,281.264374 208.490906,281.966888 211.429779,281.841888 
	C221.628616,281.407990 231.809036,280.539337 242.008041,280.112549 
	C254.324493,279.597107 266.651062,279.281677 278.976288,279.026672 
	C298.596985,278.620728 318.219818,278.302002 337.843201,278.070282 
	C339.309784,278.052948 340.788055,279.026428 342.260895,279.539307 
	C338.083466,284.589569 333.906036,289.639862 329.461975,294.877625 
z"/>
<path fill="#FDD525" opacity="1.000000" stroke="none" 
	d="
M207.384430,258.158508 
	C216.171143,257.604095 224.728897,257.262787 233.289841,257.049255 
	C238.226685,256.926117 243.169876,257.076721 248.108139,256.987762 
	C264.883179,256.685547 281.657227,256.330139 298.431702,255.997604 
	C315.288513,255.663467 332.144196,255.215454 349.002686,255.048828 
	C357.530945,254.964508 366.064301,255.391251 374.849426,255.904419 
	C368.676697,260.176056 362.249878,264.130188 355.216614,267.859100 
	C352.992126,267.422577 351.367126,266.987793 349.757111,267.037659 
	C341.648132,267.288940 333.544952,267.723694 325.436218,267.986511 
	C313.590576,268.370453 301.743408,268.726654 289.894409,268.979431 
	C271.554443,269.370728 253.211517,269.622528 234.871613,270.016449 
	C224.510559,270.238983 214.153061,270.627228 203.793945,270.940857 
	C204.914902,266.768951 206.035858,262.597076 207.384430,258.158508 
z"/>
<path fill="#FDD62A" opacity="1.000000" stroke="none" 
	d="
M203.548874,271.226440 
	C214.153061,270.627228 224.510559,270.238983 234.871613,270.016449 
	C253.211517,269.622528 271.554443,269.370728 289.894409,268.979431 
	C301.743408,268.726654 313.590576,268.370453 325.436218,267.986511 
	C333.544952,267.723694 341.648132,267.288940 349.757111,267.037659 
	C351.367126,266.987793 352.992126,267.422577 354.888000,267.977905 
	C351.061462,271.942230 346.957153,275.562561 342.556885,279.361084 
	C340.788055,279.026428 339.309784,278.052948 337.843201,278.070282 
	C318.219818,278.302002 298.596985,278.620728 278.976288,279.026672 
	C266.651062,279.281677 254.324493,279.597107 242.008041,280.112549 
	C231.809036,280.539337 221.628616,281.407990 211.429779,281.841888 
	C208.490906,281.966888 205.516830,281.264374 202.096054,280.907074 
	C202.190079,277.752594 202.746933,274.632294 203.548874,271.226440 
z"/>
</svg>